<?xml version="1.0" encoding="utf-8"?>
<svg width="1075" height="180" viewport="0 0 1500 33"  xmlns="http://www.w3.org/2000/svg">
<g>
  <line x1="1" x2="1073" y1= "1"  y2= "1" stroke="#000" />
  <line x1="1" x2="1073" y1= "36"  y2= "36" stroke="#000" />
  <line x1="1" x2="1073" y1= "72"  y2= "72" stroke="#000" />
  <line x1="1" x2="1073" y1="106"  y2="106" stroke="#000" stroke-width="2"/>
  <line x1="1" x2="1073" y1="141"  y2="141" stroke="#000" stroke-width="3"/>
  <line x1="1" x2="1073" y1="178"  y2="178" stroke="#000" stroke-width="4"/>
  <path d="M  1  1 v 178 
           m 77  0 v-178 
           m  3  0 v 178
           m 68  0 v-178
           m 66  0 v 178
           m 66  0 v-178
           m 66  0 v 178
           m 66  0 v-178
           m 66  0 v 178
           m 66  0 v-178
           m 66  0 v 178
           m 66  0 v-178
           m 66  0 v 178
           m 66  0 v-178
           m 66  0 v 178
           m 66  0 v-178
           m 66  0 v 178
           m 66  0 v-178
           " 
           fill="transparent" stroke="#000"/>

</g>

</svg>
